<svg width="60" height="60" viewBox="0 0 60 60" fill="none" xmlns="http://www.w3.org/2000/svg">
<path d="M36.442 23.0625V32.5848C36.442 32.8259 36.2545 33.0134 36.0134 33.0134H34.4866C34.3393 33.0134 34.2054 32.933 34.1384 32.8393L29.7723 26.9464V32.5982C29.7723 32.8393 29.5848 33.0268 29.3438 33.0268H27.817C27.5759 33.0268 27.3884 32.8393 27.3884 32.5982V23.0759C27.3884 22.8348 27.5759 22.6473 27.817 22.6473H29.3304C29.4643 22.6473 29.6116 22.7143 29.6786 22.8348L34.0446 28.7277V23.0759C34.0446 22.8348 34.2321 22.6473 34.4732 22.6473H36C36.2411 22.6339 36.442 22.8348 36.442 23.0625ZM25.4598 22.6339H23.933C23.692 22.6339 23.5045 22.8214 23.5045 23.0625V32.5848C23.5045 32.8259 23.692 33.0134 23.933 33.0134H25.4598C25.7009 33.0134 25.8884 32.8259 25.8884 32.5848V23.0625C25.8884 22.8348 25.7009 22.6339 25.4598 22.6339ZM21.7768 30.6161H17.6116V23.0625C17.6116 22.8214 17.4241 22.6339 17.183 22.6339H15.6563C15.4152 22.6339 15.2277 22.8214 15.2277 23.0625V32.5848C15.2277 32.7054 15.2679 32.7991 15.3482 32.8795C15.4286 32.9464 15.5223 33 15.6429 33H21.7634C22.0045 33 22.192 32.8125 22.192 32.5714V31.0446C22.192 30.817 22.0045 30.6161 21.7768 30.6161ZM44.4777 22.6339H38.3571C38.1295 22.6339 37.9286 22.8214 37.9286 23.0625V32.5848C37.9286 32.8125 38.1161 33.0134 38.3571 33.0134H44.4777C44.7187 33.0134 44.9062 32.8259 44.9062 32.5848V31.058C44.9062 30.817 44.7187 30.6295 44.4777 30.6295H40.3125V29.0223H44.4777C44.7187 29.0223 44.9062 28.8348 44.9062 28.5938V27.0536C44.9062 26.8125 44.7187 26.625 44.4777 26.625H40.3125V25.0179H44.4777C44.7187 25.0179 44.9062 24.8304 44.9062 24.5893V23.0625C44.8928 22.8348 44.7053 22.6339 44.4777 22.6339ZM60 10.942V49.1518C59.9866 55.1518 55.0714 60.0134 49.058 60H10.8482C4.84824 59.9866 -0.0133652 55.058 2.76048e-05 49.058V10.8482C0.0134204 4.84824 4.94199 -0.0133652 10.942 2.76048e-05H49.1518C55.1518 0.0134204 60.0134 4.92859 60 10.942ZM51.75 27.3616C51.75 17.5848 41.9464 9.62948 29.9062 9.62948C17.8661 9.62948 8.06252 17.5848 8.06252 27.3616C8.06252 36.1205 15.8304 43.4598 26.3304 44.8527C28.8884 45.4018 28.5938 46.3393 28.0179 49.7812C27.9241 50.3303 27.5759 51.9375 29.9062 50.9598C32.2366 49.9821 42.4821 43.5536 47.0759 38.2768C50.2366 34.7946 51.75 31.2723 51.75 27.3616Z" fill="#57BE37"/>
</svg>
