<svg width="23" height="20" viewBox="0 0 23 20" fill="none" xmlns="http://www.w3.org/2000/svg">
<path d="M7.21437 0.961208C6.8775 0.234645 5.98937 -0.152073 5.14062 0.0549579L1.29062 0.992458C0.529375 1.17996 0 1.79715 0 2.50027C0 12.1643 8.77625 20.0003 19.6 20.0003C20.3875 20.0003 21.0787 19.5276 21.2887 18.8479L22.3387 15.4104C22.5706 14.6526 22.1375 13.8596 21.3237 13.5589L17.1237 11.9964C16.4106 11.7307 15.5837 11.9143 15.0981 12.4495L13.3306 14.3753C10.2506 13.0745 7.75687 10.8479 6.3 8.09793L8.45687 6.52371C9.05625 6.08621 9.26187 5.35183 8.96437 4.71511L7.21437 0.965114V0.961208Z" fill="#F00000"/>
</svg>
