<svg width="18" height="15" viewBox="0 0 18 15" fill="none" xmlns="http://www.w3.org/2000/svg">
<path d="M6.16379 7.5C7.21134 7.5 8.06034 6.66064 8.06034 5.625C8.06034 4.58936 7.21134 3.75 6.16379 3.75C5.11624 3.75 4.26724 4.58936 4.26724 5.625C4.26724 6.65918 5.11773 7.5 6.16379 7.5ZM13.75 6.79688H10.9052C10.5125 6.79688 10.194 7.11182 10.194 7.5C10.194 7.88818 10.5125 8.20312 10.9052 8.20312H13.75C14.1426 8.20312 14.4612 7.88818 14.4612 7.5C14.4612 7.11182 14.1441 6.79688 13.75 6.79688ZM7.11207 8.4375H5.21552C3.90571 8.4375 2.84483 9.48633 2.84483 10.7812C2.84483 11.0391 3.05819 11.25 3.31897 11.25H9.00862C9.27046 11.25 9.48276 11.0401 9.48276 10.7812C9.48276 9.48633 8.42188 8.4375 7.11207 8.4375ZM13.75 4.45312H10.9052C10.5125 4.45312 10.194 4.76807 10.194 5.15625C10.194 5.54443 10.5125 5.85938 10.9052 5.85938H13.75C14.1426 5.85938 14.4612 5.54443 14.4612 5.15625C14.4612 4.76807 14.1441 4.45312 13.75 4.45312ZM15.1724 0.9375H1.89655C0.849003 0.9375 0 1.77686 0 2.8125V12.1875C0 13.2231 0.849003 14.0625 1.89655 14.0625H15.1724C16.22 14.0625 17.069 13.2231 17.069 12.1875V2.8125C17.069 1.77686 16.2185 0.9375 15.1724 0.9375ZM15.6466 12.1875C15.6466 12.446 15.4338 12.6562 15.1724 12.6562H1.89655C1.63512 12.6562 1.42241 12.446 1.42241 12.1875V2.8125C1.42241 2.55404 1.63512 2.34375 1.89655 2.34375H15.1724C15.4338 2.34375 15.6466 2.55404 15.6466 2.8125V12.1875Z" fill="black"/>
</svg>
